<svg id="Group_547" data-name="Group 547" xmlns="http://www.w3.org/2000/svg" xmlns:xlink="http://www.w3.org/1999/xlink" width="17.089" height="17.098" viewBox="0 0 17.089 17.098">
  <defs>
    <clipPath id="clip-path">
      <rect id="Rectangle_1887" data-name="Rectangle 1887" width="17.089" height="17.098" fill="none"/>
    </clipPath>
  </defs>
  <g id="Group_542" data-name="Group 542" clip-path="url(#clip-path)">
    <path id="Path_1032" data-name="Path 1032" d="M13.183,17.1H3.9c-.048-.011-.1-.025-.145-.031a4.144,4.144,0,0,1-2.4-1.1A4.188,4.188,0,0,1,0,12.786q0-4.23,0-8.46c0-.178.012-.356.029-.533A4.2,4.2,0,0,1,4.136.013q4.4-.028,8.809,0a4.168,4.168,0,0,1,3.908,2.865c.11.335.158.69.235,1.035v9.28a1.393,1.393,0,0,0-.031.144,4.2,4.2,0,0,1-3.028,3.589c-.276.079-.564.116-.846.173M1.706,8.548q0,2.095,0,4.189a3.091,3.091,0,0,0,.045.564A2.5,2.5,0,0,0,4.31,15.391q4.23,0,8.46,0a2.833,2.833,0,0,0,.53-.047,2.5,2.5,0,0,0,2.079-2.5c.008-.74,0-1.48,0-2.22,0-2.108,0-4.217,0-6.326a2.5,2.5,0,0,0-2.519-2.582c-2.881-.013-5.763-.006-8.644,0a2.426,2.426,0,0,0-1.342.4,2.477,2.477,0,0,0-1.167,2.18c-.01,1.419,0,2.837,0,4.256" transform="translate(0.001 0)"/>
    <path id="Path_1033" data-name="Path 1033" d="M104.379,100.252a4.272,4.272,0,1,1-4.264-4.272,4.234,4.234,0,0,1,4.264,4.272m-1.707.008a2.565,2.565,0,1,0-2.581,2.559,2.527,2.527,0,0,0,2.581-2.559" transform="translate(-91.562 -91.701)"/>
    <path id="Path_1034" data-name="Path 1034" d="M270,77.652a.855.855,0,1,1-.843-.858.86.86,0,0,1,.843.858" transform="translate(-256.332 -73.37)"/>
  </g>
</svg>
