<svg id="Group_538" data-name="Group 538" xmlns="http://www.w3.org/2000/svg" xmlns:xlink="http://www.w3.org/1999/xlink" width="13" height="17.954" viewBox="0 0 13 17.954">
  <defs>
    <clipPath id="clip-path">
      <rect id="Rectangle_1885" data-name="Rectangle 1885" width="13" height="17.954" fill="none"/>
    </clipPath>
  </defs>
  <g id="Group_537" data-name="Group 537" clip-path="url(#clip-path)">
    <path id="Path_1031" data-name="Path 1031" d="M6.362,17.955a3.468,3.468,0,0,1-.448-.375A36.537,36.537,0,0,1,1.89,12,15.989,15.989,0,0,1,.276,8.344a6.328,6.328,0,0,1,.835-5.461A6.265,6.265,0,0,1,5.6.07a6.275,6.275,0,0,1,5.011,1.4,6.354,6.354,0,0,1,2.313,4.06,7.208,7.208,0,0,1-.484,3.691A21.794,21.794,0,0,1,10.061,13.7a39.066,39.066,0,0,1-2.97,3.882,3.526,3.526,0,0,1-.448.375ZM6.5,9.774A3.274,3.274,0,1,0,3.235,6.506,3.278,3.278,0,0,0,6.5,9.774" transform="translate(0 -0.001)"/>
  </g>
</svg>
